# xmcd
#
# Track frame offsets:
#	150
#	13362
#	27568
#	45524
#	60091
#	77285
#	97343
#	110269
#	128684
#	142134
#	163818
#
# Disc length: 2443 seconds
#
# Revision: 3
# Processed by: cddbd v1.5.2PL0 Copyright (c) Steve Scherf et al.
# Submitted via: EZCDAudioConverter 7.1.5.1
#
DISCID=8e09890b
DTITLE=Luke Bryan - Doin' My Thing
DYEAR=2009
DGENRE=Country
TTITLE0=Rain Is A Good Thing
TTITLE1=Doin' My Thing
TTITLE2=Do I
TTITLE3=What Country Is
TTITLE4=Someone Else Calling You Baby
TTITLE5=Welcome To The Farm
TTITLE6=Apologize
TTITLE7=Every Time I See You
TTITLE8=Chuggin' Along
TTITLE9=I Did It Again
TTITLE10=Drinkin' Beer And Wastin' Bullets
EXTD=
EXTT0=
EXTT1=
EXTT2=
EXTT3=
EXTT4=
EXTT5=
EXTT6=
EXTT7=
EXTT8=
EXTT9=
EXTT10=
PLAYORDER=
